<?xml version="1.0" standalone="no"?>
<!DOCTYPE svg PUBLIC "-//W3C//DTD SVG 20010904//EN"
 "http://www.w3.org/TR/2001/REC-SVG-20010904/DTD/svg10.dtd">
<svg version="1.0" xmlns="http://www.w3.org/2000/svg"
 width="700.000000pt" height="700.000000pt" viewBox="0 0 700.000000 700.000000"
 preserveAspectRatio="xMidYMid meet">
<metadata>
Created by potrace 1.14, written by Peter Selinger 2001-2017
</metadata>
<g transform="translate(0.000000,700.000000) scale(0.100000,-0.100000)"
fill="#000000" stroke="none">
<path d="M3381 6558 c-120 -244 -273 -553 -339 -688 -66 -135 -193 -393 -282
-575 -89 -181 -235 -476 -323 -655 -428 -870 -488 -993 -541 -1099 -31 -63
-55 -115 -53 -117 2 -2 349 -5 770 -6 422 -2 767 -4 767 -5 0 -2 -158 -409
-205 -528 -27 -69 -161 -414 -305 -785 -54 -140 -127 -329 -163 -420 -35 -91
-115 -295 -176 -455 -62 -159 -116 -299 -121 -310 -9 -19 -29 -70 -171 -437
-74 -191 -71 -184 -61 -173 8 9 237 299 308 390 12 17 60 77 105 135 46 58
134 170 196 250 63 80 119 152 126 160 7 8 68 87 137 175 69 88 130 167 137
175 7 8 51 65 99 125 47 61 96 124 109 140 54 69 562 716 823 1050 155 198
293 374 307 390 20 26 69 88 254 324 14 19 55 71 91 116 36 46 119 152 185
237 66 84 125 159 132 166 7 8 11 17 8 22 -3 5 -78 9 -167 9 -303 2 -1349 17
-1371 20 -4 1 35 63 86 139 108 158 263 387 468 691 79 118 236 351 349 518
593 877 671 996 663 1003 -20 21 -302 162 -428 216 -117 49 -322 120 -376 129
-18 3 -36 8 -40 10 -7 5 -121 30 -179 39 -19 3 -44 7 -55 10 -18 3 -55 9 -145
21 -14 2 -52 6 -85 10 -33 3 -76 8 -95 10 -19 2 -77 7 -128 10 l-93 6 -218
-443z"/>
<path d="M3069 6976 c-2 -2 -31 -6 -64 -9 -90 -9 -298 -51 -426 -87 -597 -164
-1122 -470 -1559 -909 -364 -365 -617 -757 -800 -1236 -39 -103 -108 -327
-125 -404 -20 -91 -44 -214 -49 -246 -4 -22 -8 -53 -11 -70 -23 -149 -30 -271
-30 -515 1 -265 12 -406 50 -610 3 -14 7 -41 10 -60 3 -19 8 -43 11 -52 3 -9
7 -26 9 -37 12 -64 70 -265 106 -367 118 -337 264 -612 483 -914 216 -298 533
-606 846 -822 103 -71 294 -188 307 -188 7 0 67 158 297 780 14 36 38 103 55
150 18 47 35 94 40 105 5 11 17 42 26 69 15 41 16 50 4 57 -8 4 -61 42 -119
85 -125 93 -350 315 -441 434 -137 181 -262 400 -324 570 -15 41 -33 91 -41
110 -17 44 -61 220 -69 280 -4 25 -10 65 -15 90 -26 139 -29 453 -6 635 3 23
17 112 21 135 106 588 498 1155 1033 1493 62 39 118 80 125 91 7 12 35 68 62
126 27 58 58 119 70 135 11 17 19 31 17 33 -2 1 50 109 114 240 346 703 444
903 444 907 0 6 -45 7 -51 1z"/>
<path d="M5464 6132 c-62 -92 -213 -317 -337 -501 l-226 -334 38 -31 c86 -72
239 -224 282 -281 13 -16 26 -32 29 -35 11 -11 77 -97 111 -145 105 -151 202
-334 263 -498 34 -91 89 -288 101 -360 3 -18 7 -43 10 -57 8 -42 14 -100 21
-200 25 -342 -20 -668 -132 -967 -266 -710 -909 -1271 -1634 -1427 -145 -31
-259 -46 -412 -51 -66 -3 -124 -7 -129 -11 -5 -3 -37 -42 -71 -87 -35 -45 -68
-89 -75 -97 -7 -8 -170 -215 -361 -460 l-348 -445 40 -13 c38 -12 135 -34 201
-46 17 -3 41 -8 55 -11 14 -3 43 -7 65 -10 22 -2 58 -7 80 -10 358 -48 800
-34 1130 36 28 6 61 13 75 15 112 22 419 114 497 150 17 8 34 14 37 14 32 0
416 194 546 276 165 103 348 240 480 358 74 67 261 257 315 320 28 33 55 64
60 70 23 24 165 216 215 291 79 118 94 142 142 230 142 257 217 436 306 725
17 57 23 79 37 140 2 8 15 69 29 135 25 121 30 149 41 240 4 28 8 61 10 74 24
146 24 571 0 756 -2 17 -6 55 -9 85 -12 118 -78 437 -99 475 -6 11 -10 22 -9
25 3 10 -38 150 -57 195 -5 11 -28 70 -51 130 -72 188 -189 417 -302 593 -181
282 -410 547 -654 759 -73 63 -189 153 -196 153 -2 0 -53 -76 -114 -168z"/>
</g>
</svg>
